<?xml version="1.0" standalone="no"?>
<!DOCTYPE svg PUBLIC "-//W3C//DTD SVG 20010904//EN"
 "http://www.w3.org/TR/2001/REC-SVG-20010904/DTD/svg10.dtd">
<svg version="1.0" xmlns="http://www.w3.org/2000/svg"
 width="300.000000pt" height="250.000000pt" viewBox="0 0 300.000000 250.000000"
 preserveAspectRatio="xMidYMid meet">
<metadata>
Created by potrace 1.10, written by Peter Selinger 2001-2011
</metadata>
<g transform="translate(0.000000,250.000000) scale(0.100000,-0.100000)"
fill="#000000" stroke="none">
<path d="M614 2456 c-6 -26 -1 -221 7 -245 3 -9 -11 -17 -46 -26 -80 -19 -117
-39 -167 -89 -111 -111 -119 -294 -16 -411 52 -59 113 -94 177 -102 l51 -6 -6
-107 c-7 -111 0 -185 17 -175 5 4 9 47 9 98 l0 91 65 -64 c51 -51 67 -62 77
-52 10 10 -4 29 -65 90 -75 76 -77 79 -77 127 l0 49 45 -44 c54 -53 77 -46 49
14 -10 20 -21 36 -25 36 -10 0 -5 30 6 31 5 0 16 -17 24 -38 34 -83 51 -84 51
-3 0 33 2 60 5 60 3 0 20 -15 37 -34 31 -33 31 -36 32 -138 1 -84 4 -103 16
-103 12 0 15 16 15 88 0 48 1 87 2 87 4 0 108 -112 110 -118 2 -4 -14 -16 -35
-28 -20 -12 -68 -39 -107 -61 -38 -22 -92 -52 -120 -68 -68 -38 -259 -148
-264 -152 -2 -1 3 -11 11 -20 8 -10 39 -61 68 -113 29 -52 54 -96 56 -98 1 -2
19 8 41 22 72 47 65 82 71 -361 l2 -133 135 0 135 0 0 348 1 347 366 210 c201
116 369 209 374 207 5 -1 181 -102 392 -223 323 -188 695 -402 719 -415 6 -4
138 219 138 233 0 4 -134 85 -298 179 l-297 171 -3 172 -2 171 -138 0 -137 0
2 -85 c1 -57 -2 -85 -9 -85 -7 0 -89 45 -184 100 -96 55 -175 100 -177 100 -4
0 -254 -143 -537 -307 -131 -76 -155 -94 -152 -112 3 -22 -21 -30 -33 -11 -3
6 -1 10 4 10 24 0 8 28 -51 88 l-63 63 82 -7 c60 -5 87 -3 98 6 28 23 4 30
-104 30 l-107 0 -34 35 -34 35 63 0 c53 0 62 3 59 17 -2 9 -16 21 -33 26 -31
10 -68 37 -61 44 2 3 22 -5 45 -16 78 -41 97 -15 31 42 -22 19 -40 36 -40 39
0 3 24 3 53 0 49 -4 56 -8 124 -79 67 -69 93 -83 93 -48 0 7 -27 38 -60 68
-33 29 -60 56 -60 58 0 2 42 4 92 4 76 0 93 3 93 15 0 12 -15 15 -65 17 -141
3 -133 -5 -62 61 60 57 75 82 50 82 -7 0 -45 -32 -85 -72 -65 -64 -76 -71
-115 -73 -24 -1 -47 0 -51 2 -5 3 10 21 32 40 36 30 54 63 34 63 -7 0 -67 -18
-100 -31 -13 -5 -23 -5 -23 0 0 5 25 19 55 31 71 29 73 50 4 50 -37 0 -48 -3
-43 -12 5 -9 2 -8 -10 1 -16 13 -15 16 15 47 32 33 33 33 141 36 132 4 150 22
26 26 -49 1 -88 6 -88 10 0 3 28 35 62 69 44 44 59 66 52 73 -8 8 -30 -8 -74
-54 -35 -36 -66 -64 -69 -61 -2 3 -5 42 -5 88 -1 66 -4 82 -16 82 -12 0 -15
-19 -16 -108 -1 -104 -2 -109 -29 -137 -16 -17 -32 -30 -37 -30 -4 0 -8 27 -8
61 0 65 -14 75 -37 29 -9 -19 -9 -26 2 -34 18 -15 6 -88 -20 -118 -11 -13 -27
-32 -35 -43 -14 -19 -14 -19 3 -6 12 9 17 10 17 2 0 -7 15 2 33 18 30 29 87
43 87 23 0 -8 -13 -16 -75 -42 -23 -10 -26 -14 -12 -17 23 -6 21 -18 -5 -31
-20 -9 -18 -10 12 -5 19 3 53 12 74 20 22 7 42 11 45 7 12 -12 -46 -44 -81
-44 -20 0 -40 -5 -43 -11 -10 -15 -5 -17 38 -22 21 -2 48 -14 62 -27 31 -29
26 -36 -12 -17 -15 8 -43 18 -60 22 -29 6 -32 4 -26 -11 4 -11 3 -15 -5 -10
-6 3 -13 2 -16 -3 -3 -4 22 -24 57 -42 l62 -34 -34 -3 c-26 -3 -40 3 -65 27
-30 29 -56 40 -56 24 0 -4 14 -21 31 -39 24 -25 30 -38 27 -65 l-3 -34 -24 47
c-24 50 -51 80 -51 58 0 -7 -7 -10 -15 -6 -17 6 -13 -22 11 -83 18 -43 11 -51
-16 -20 -15 19 -19 37 -18 82 0 32 -4 63 -10 69 -9 9 -12 -15 -12 -96 l0 -109
-42 7 c-89 14 -165 72 -203 153 -33 73 -30 181 7 243 15 25 36 54 45 65 26 29
116 75 148 75 46 0 65 17 65 58 0 32 9 45 77 114 58 58 74 81 66 89 -9 9 -28
-6 -77 -56 -36 -37 -67 -72 -69 -79 -2 -6 -2 37 1 97 3 75 1 107 -6 107 -7 0
-14 -11 -18 -24z m1212 -652 c89 -54 142 -84 214 -120 l64 -33 22 20 c16 15
23 36 27 81 3 34 11 64 19 69 13 8 169 2 178 -7 2 -3 3 -66 2 -140 -3 -175 -5
-171 126 -247 41 -23 90 -52 110 -64 21 -12 51 -29 67 -38 36 -19 57 -32 112
-68 24 -15 45 -27 47 -27 10 0 126 -73 126 -79 -1 -3 -17 -33 -36 -66 -19 -33
-38 -68 -41 -77 -5 -18 -48 -25 -55 -10 -3 7 -54 37 -353 207 -38 22 -79 46
-90 52 -11 7 -33 19 -50 28 -16 9 -43 24 -60 35 -16 11 -37 23 -45 27 -8 4
-47 26 -86 50 -39 24 -74 43 -77 43 -3 0 -50 27 -105 59 -55 33 -123 71 -151
86 l-52 26 -42 -19 c-23 -11 -82 -43 -132 -72 -49 -29 -106 -61 -125 -72 -175
-100 -216 -123 -220 -128 -3 -3 -23 -15 -45 -27 -22 -12 -70 -38 -107 -59
-112 -60 -108 -47 -108 -418 0 -294 -1 -316 -17 -317 -10 0 -48 -2 -84 -4 -36
-2 -72 1 -80 6 -11 7 -15 54 -17 241 -3 215 -4 235 -22 253 -18 17 -24 18 -62
8 -52 -14 -56 -11 -103 73 -31 55 -34 66 -23 84 7 11 18 20 25 20 6 0 13 3 15
8 4 10 80 48 90 45 4 -2 8 1 8 6 0 5 8 11 18 15 17 5 52 26 62 36 3 3 24 14
47 25 24 11 43 23 43 28 0 4 8 7 17 7 9 0 24 6 32 14 22 20 108 66 122 66 6 0
32 15 58 34 67 48 219 136 236 136 8 0 15 5 15 11 0 5 4 8 9 5 5 -3 11 0 14 7
3 7 39 31 81 52 42 22 76 43 76 47 0 5 5 8 10 8 6 0 52 25 103 55 50 30 101
55 113 55 11 0 47 -16 80 -36z"/>
<path d="M420 2355 c0 -29 52 -149 69 -159 21 -13 12 43 -18 108 -32 72 -51
91 -51 51z"/>
<path d="M199 2293 c14 -26 167 -173 180 -173 6 0 11 5 11 12 0 17 -167 178
-185 178 -12 0 -13 -4 -6 -17z"/>
<path d="M685 2186 c-22 -25 -39 -50 -36 -57 2 -8 -2 -10 -13 -6 -14 5 -16 -2
-16 -47 0 -68 7 -90 24 -73 20 20 48 87 44 105 -2 10 -12 -7 -23 -38 l-20 -55
-3 44 c-3 36 1 48 24 73 16 15 34 26 41 24 13 -5 46 51 37 65 -9 15 -18 10
-59 -35z"/>
<path d="M728 2100 c-25 -29 -50 -80 -45 -93 4 -11 28 27 54 86 14 32 13 33
-9 7z"/>
<path d="M130 2081 c0 -11 90 -55 142 -69 84 -23 31 30 -62 63 -48 17 -80 19
-80 6z"/>
<path d="M38 1894 c-63 -18 41 -36 165 -28 82 4 96 8 83 22 -9 8 -222 13 -248
6z"/>
<path d="M249 1745 c-57 -21 -119 -55 -119 -65 0 -14 8 -13 76 10 66 23 134
70 99 69 -11 0 -36 -6 -56 -14z"/>
<path d="M328 1606 c-49 -40 -138 -137 -138 -150 0 -3 6 -6 13 -6 16 0 187
173 187 189 0 17 -4 15 -62 -33z"/>
<path d="M456 1514 c-30 -62 -45 -124 -28 -124 15 0 72 127 72 161 0 34 -16
20 -44 -37z"/>
<path d="M1642 1351 c-154 -231 -208 -370 -200 -512 5 -88 34 -147 94 -197
102 -85 301 -83 402 4 157 134 126 370 -88 684 -39 58 -79 117 -88 132 -9 16
-19 28 -22 28 -3 0 -47 -63 -98 -139z m178 -27 c132 -197 190 -338 190 -453
-1 -97 -44 -178 -120 -226 -38 -24 -143 -46 -139 -29 2 9 1 14 -20 74 -7 19
-13 41 -14 48 0 6 -4 12 -9 12 -5 0 -7 4 -3 9 3 5 1 12 -4 16 -6 3 -23 45 -38
93 -24 76 -28 101 -26 197 0 61 4 139 7 175 3 36 5 68 6 72 0 7 89 118 95 118
2 0 36 -48 75 -106z m-185 -66 c-54 -176 -43 -304 45 -512 54 -126 54 -132 8
-129 -102 6 -184 103 -195 233 -10 106 31 260 101 378 32 53 54 69 41 30z"/>
<path d="M2478 700 l3 -330 -246 0 -245 0 0 -137 0 -138 337 5 c367 5 368 6
403 63 19 30 20 53 20 373 l0 341 -27 12 c-16 7 -76 42 -135 77 -59 35 -109
64 -110 64 -2 0 -2 -148 0 -330z m87 246 c22 -14 54 -32 70 -40 67 -36 86 -58
89 -109 2 -26 0 -47 -4 -47 -4 0 -4 -19 0 -41 9 -49 1 -478 -9 -517 -4 -15
-22 -35 -40 -46 -31 -18 -57 -19 -337 -21 -353 -2 -317 -17 -312 125 l3 85
220 3 c210 2 220 3 242 24 l24 22 -1 285 c0 158 0 289 0 294 0 12 13 8 55 -17z"/>
<path d="M1560 235 c0 -202 2 -235 15 -235 8 0 15 8 16 18 0 9 2 102 5 206 2
104 8 194 13 199 5 5 17 7 27 5 18 -3 19 -18 22 -216 2 -204 3 -212 22 -212
19 0 20 7 20 235 l0 235 -70 0 -70 0 0 -235z"/>
<path d="M1780 235 c0 -192 2 -235 14 -235 19 0 27 72 26 247 -1 81 2 156 5
166 7 17 40 24 49 9 3 -5 6 -102 7 -215 1 -196 2 -207 20 -207 18 0 19 11 19
235 l0 235 -70 0 -70 0 0 -235z"/>
<path d="M400 230 l0 -140 545 0 545 0 0 140 0 140 -545 0 -545 0 0 -140z
m1042 99 c15 -8 18 -23 18 -103 0 -89 -1 -94 -22 -100 -13 -3 -240 -6 -506 -6
l-482 0 -10 26 c-15 38 -13 169 3 182 17 15 159 18 612 14 210 -2 377 -8 387
-13z"/>
</g>
</svg>
